<?xml version="1.0" encoding="UTF-8" standalone="no"?>
<svg
   id="Capa_1"
   data-name="Capa 1"
   viewBox="0 0 145.64999 151.58657"
   version="1.1"
   sodipodi:docname="Logoapok.svg"
   width="145.64999"
   height="151.58658"
   inkscape:version="1.1.2 (b8e25be833, 2022-02-05)"
   xmlns:inkscape="http://www.inkscape.org/namespaces/inkscape"
   xmlns:sodipodi="http://sodipodi.sourceforge.net/DTD/sodipodi-0.dtd"
   xmlns="http://www.w3.org/2000/svg"
   xmlns:svg="http://www.w3.org/2000/svg"
   xmlns:rdf="http://www.w3.org/1999/02/22-rdf-syntax-ns#"
   xmlns:cc="http://creativecommons.org/ns#"
   xmlns:dc="http://purl.org/dc/elements/1.1/">
  <sodipodi:namedview
     id="namedview23"
     pagecolor="#ffffff"
     bordercolor="#666666"
     borderopacity="1.0"
     inkscape:pageshadow="2"
     inkscape:pageopacity="0.0"
     inkscape:pagecheckerboard="0"
     showgrid="false"
     inkscape:zoom="3.2074364"
     inkscape:cx="37.257169"
     inkscape:cy="72.955462"
     inkscape:window-width="1920"
     inkscape:window-height="1009"
     inkscape:window-x="-8"
     inkscape:window-y="-8"
     inkscape:window-maximized="1"
     inkscape:current-layer="Capa_1" />
  <defs
     id="defs4">
    <style
       id="style2">.cls-1{fill:#fff;}</style>
  </defs>
  <title
     id="title6">logo-white</title>
  <path
     class="cls-1"
     d="m 135.35,35.88 c 0,0 0.24,-16.38 -5,-30.4 l -7,-5.48 c 0,0 5.87,10.14 4.58,34.58 -0.28,5.26 -1.46,19.07 -6.43,32 -4.97,12.93 -11.79,28.22 -33.57,42 -15.91,10 -41.64,16 -42.29,14.35 -0.79,-2 26.1,-9.8 39.74,-19.52 17.17,-12.23 22.5,-21.31 28.27,-33.81 6.85,-14.81 8.4,-33.54 6.94,-33.75 -1.46,-0.21 -12.42,-0.85 -21.78,11.43 -6.09,8 -5.26,20.66 -5.26,20.66 0,0 -3.69,-0.47 -5.7,-0.63 C 73.63,66.18 57.21,81.87 57.6,82.5 c 0.39,0.63 3.21,2.83 10,2.59 7.56,-0.27 -20.77,10.28 -30,14.42 A 99.57,99.57 0 0 0 7.09,120.65 44.54,44.54 0 0 0 0,130.31 a 27.6,27.6 0 0 0 5.77,7.07 47.9,47.9 0 0 0 22.68,10.86 c 13.27,2.17 20.57,1.55 25.34,0 7.15,-2.34 9.27,-4.57 13.35,-7.46 -1,2.32 -7.58,9.41 -7.31,10.18 0.2,0.56 11.11,2.85 29.73,-7.08 21.54,-11.49 22.73,-25.67 22.73,-25.67 0,0 -0.1,14.19 1.07,13.51 6.65,-3.88 15.56,-14 18.82,-27.14 3.38,-13.61 6,-22.16 6.39,-20.85 0.65,2.18 2,4.11 2.26,4.1 1,0 4.39,-10.93 4.82,-25.22 a 54.46,54.46 0 0 0 -2,-13.53 c -2.57,-10.33 -8.3,-13.2 -8.3,-13.2 z"
     id="path12"
     style="fill:#b3b3b3" />
  <metadata
     id="metadata840">
    <rdf:RDF>
      <cc:Work
         rdf:about="">
        <dc:title>logo-white</dc:title>
      </cc:Work>
    </rdf:RDF>
  </metadata>
</svg>
