<svg id="Capa_1" data-name="Capa 1" xmlns="http://www.w3.org/2000/svg" viewBox="0 0 500 171.46"><defs><style>.cls-1{fill:#fff;}</style></defs><title>logo-white</title><path class="cls-1" d="M345.38,36.69q2.43,2,6.9,2t6.91-2c1.63-1.3,2.44-3.77,2.44-7.39s-.81-6.1-2.44-7.4S355.26,20,352.28,20s-5.28.65-6.9,1.95-2.44,3.77-2.44,7.4S343.75,35.39,345.38,36.69Z"/><path class="cls-1" d="M376.91,36.69q2.44,2,6.91,2t6.9-2c1.63-1.3,2.44-3.77,2.44-7.39s-.81-6.1-2.44-7.4S386.79,20,383.82,20s-5.28.65-6.91,1.95-2.44,3.77-2.44,7.4S375.28,35.39,376.91,36.69Z"/><path class="cls-1" d="M135.35,35.88s.24-16.38-5-30.4l-7-5.48s5.87,10.14,4.58,34.58c-.28,5.26-1.46,19.07-6.43,32s-11.79,28.22-33.57,42c-15.91,10-41.64,16-42.29,14.35-.79-2,26.1-9.8,39.74-19.52,17.17-12.23,22.5-21.31,28.27-33.81,6.85-14.81,8.4-33.54,6.94-33.75S108.17,35,98.81,47.28c-6.09,8-5.26,20.66-5.26,20.66s-3.69-.47-5.7-.63C73.63,66.18,57.21,81.87,57.6,82.5s3.21,2.83,10,2.59c7.56-.27-20.77,10.28-30,14.42A99.57,99.57,0,0,0,7.09,120.65,44.54,44.54,0,0,0,0,130.31a27.6,27.6,0,0,0,5.77,7.07,47.9,47.9,0,0,0,22.68,10.86c13.27,2.17,20.57,1.55,25.34,0,7.15-2.34,9.27-4.57,13.35-7.46-1,2.32-7.58,9.41-7.31,10.18.2.56,11.11,2.85,29.73-7.08,21.54-11.49,22.73-25.67,22.73-25.67s-.1,14.19,1.07,13.51c6.65-3.88,15.56-14,18.82-27.14,3.38-13.61,6-22.16,6.39-20.85.65,2.18,2,4.11,2.26,4.1,1,0,4.39-10.93,4.82-25.22a54.46,54.46,0,0,0-2-13.53C141.08,38.75,135.35,35.88,135.35,35.88Z"/><path class="cls-1" d="M187.12,49.27q-11.94,0-19.4,5.14a19.88,19.88,0,0,0-5.64,6.22,40.1,40.1,0,0,0-3.56,7.54,45.74,45.74,0,0,0-1.91,9q-.66,5.39-.83,9.45t-.16,12.6a105,105,0,0,0,1.24,16.41,51.64,51.64,0,0,0,4.56,14.67q6.63,13.93,25.86,13.93l23.05-12.43L217,143.27h14.42V48l-21.55,1.32Zm22.71,63.83-16.41,8.46q-9.45,0-12.85-5.64t-3.4-19.48q0-13.84,3.57-20.81t12.68-7h16.41Z"/><path class="cls-1" d="M285.14,49.27H242.7V171.46h21.55v-37l15.92,10.28q11.26,0,19.06-4.15,19.06-10.27,19.07-47.25,0-22.38-7-33.24T285.14,49.27ZM292.6,116q-4.14,6.06-13.76,6l-14.59-9.45V68.67h14.59q17.91,0,17.91,28Q296.75,110,292.6,116Z"/><path class="cls-1" d="M367.5,47.28q-22.78,0-31.58,13.93-7.62,12.43-7.62,34.32,0,23.37,7.62,36.14,8.63,13.92,32.16,13.93,18.57,0,28.35-9Q408,126.2,408,95.53q0-23.88-8.87-36.06T367.5,47.28Zm19,53.22q0,5.15-.17,7.79-.49,9-3.81,12.77-4.65,5.14-14.43,5.14-12.09,0-15.41-8.29-2.82-7.12-2.82-18.07V91.22q0-12.43,3.56-18.49t13.85-6q10.28,0,15.08,4.31,4.14,3.48,4.15,20.89Z"/><polygon class="cls-1" points="463.36 94.86 494.36 52.42 469.99 52.42 439.82 97.35 439.82 18.6 418.27 18.6 418.27 143.28 439.82 143.28 439.82 123.22 449.27 109.79 474.14 143.28 500 143.28 463.36 94.86"/></svg>